<svg
              height="62"
              width="60"
              xmlns="http://www.w3.org/2000/svg"
              viewbox="0 0 1524.5 1155.62"
            >
              <defs>
                <style>
                  .cls-1 {
                    fill: #0749f0;
                  }
                </style>
              </defs>
              <rect class="cls-1" x="84.18" width="420.92" height="202.04" />
              <path
                class="cls-1"
                d="M767.24,830.12v456.13c0,169.07-137.06,306.12-306.12,306.12h-199V1376.55h167.6a117.09,117.09,0,0,0,117.09-117.09V830.12Z"
                transform="translate(-262.14 -436.75)"
              />
              <path
                class="cls-1"
                d="M999.9,436.75h441.58c190.62,0,345.16,154.53,345.16,345.16V804.1h0c0,177.52-143.91,321.43-321.44,321.43H1221.84v466.84H1010.61V918.9h436.23a116.32,116.32,0,0,0,116.32-116.33V772h0a116.32,116.32,0,0,0-116.32-116.33H999.9Z"
                transform="translate(-262.14 -436.75)"
              />
            </svg>